<?xml version="1.0" encoding="UTF-8" standalone="no"?>
<!-- Created with Inkscape (http://www.inkscape.org/) -->

<svg
   xmlns:dc="http://purl.org/dc/elements/1.1/"
   xmlns:cc="http://creativecommons.org/ns#"
   xmlns:rdf="http://www.w3.org/1999/02/22-rdf-syntax-ns#"
   xmlns:svg="http://www.w3.org/2000/svg"
   xmlns="http://www.w3.org/2000/svg"
   xmlns:sodipodi="http://sodipodi.sourceforge.net/DTD/sodipodi-0.dtd"
   xmlns:inkscape="http://www.inkscape.org/namespaces/inkscape"
   width="1000"
   height="1000"
   id="svg3475"
   version="1.1"
   inkscape:version="0.48.5 r10040"
   sodipodi:docname="ul.svg">
  <defs
     id="defs3477" />
  <sodipodi:namedview
     id="base"
     pagecolor="#ffffff"
     bordercolor="#666666"
     borderopacity="1.0"
     inkscape:pageopacity="0.0"
     inkscape:pageshadow="2"
     inkscape:zoom="3.1582085"
     inkscape:cx="107.59035"
     inkscape:cy="86.263788"
     inkscape:document-units="px"
     inkscape:current-layer="layer1"
     showgrid="false"
     fit-margin-top="0"
     fit-margin-left="0"
     fit-margin-right="0"
     fit-margin-bottom="0"
     inkscape:window-width="1680"
     inkscape:window-height="998"
     inkscape:window-x="-8"
     inkscape:window-y="-8"
     inkscape:window-maximized="1" />
  <metadata
     id="metadata3480">
    <rdf:RDF>
      <cc:Work
         rdf:about="">
        <dc:format>image/svg+xml</dc:format>
        <dc:type
           rdf:resource="http://purl.org/dc/dcmitype/StillImage" />
        <dc:title />
      </cc:Work>
    </rdf:RDF>
  </metadata>
  <g
     inkscape:label="Ebene 1"
     inkscape:groupmode="layer"
     id="layer1"
     transform="translate(-120.61209,608.54928)">
    <g
       id="g2988"
       transform="matrix(7.7383659,0,0,7.7383659,-812.72839,-2637.7381)">
      <path
         id="path22"
         style="fill:#000000;fill-opacity:1;fill-rule:nonzero;stroke:none"
         d="m 185.22521,391.45071 c 35.68413,0 64.61313,-28.92888 64.61313,-64.61313 0,-35.68437 -28.929,-64.61312 -64.61313,-64.61312 -35.68437,0 -64.61312,28.92875 -64.61312,64.61312 0,35.68425 28.92875,64.61313 64.61312,64.61313"
         inkscape:connector-curvature="0" />
      <path
         id="path24"
         style="fill:#ffffff;fill-opacity:1;fill-rule:nonzero;stroke:none"
         d="m 185.22521,379.44958 c 29.05926,0 52.61713,-23.55787 52.61713,-52.61712 0,-29.05925 -23.55787,-52.61713 -52.61713,-52.61713 -29.05937,0 -52.61725,23.55788 -52.61725,52.61713 0,29.05925 23.55788,52.61712 52.61725,52.61712"
         inkscape:connector-curvature="0" />
      <path
         id="path26"
         style="fill:#000000;fill-opacity:1;fill-rule:nonzero;stroke:none"
         d="m 153.70384,292.18483 11.91562,0 0,38.38913 c 0,2.44175 0.74688,4.54425 4.1415,4.54425 3.12313,0 4.07375,-2.713 4.07375,-4.88338 l 0,-38.05 11.91588,0 0,36.82925 c 0,8.61563 -3.85925,15.26763 -16.05738,15.26763 -10.09937,0 -15.98937,-4.81925 -15.98937,-15.26763 l 0,-36.82925"
         inkscape:connector-curvature="0" />
      <path
         id="path28"
         style="fill:#000000;fill-opacity:1;fill-rule:nonzero;stroke:none"
         d="m 190.44196,361.49746 0,-50.9125 11.91576,0 0,40.71287 14.5885,0 0,10.19963 -26.50426,0"
         inkscape:connector-curvature="0" />
      <path
         id="path30"
         style="fill:#000000;fill-opacity:1;fill-rule:nonzero;stroke:none"
         d="m 168.23434,351.22233 1.23612,0 c 0.5915,0 1.65875,0.0319 1.68,1.39275 0.0211,1.38225 -1.12,1.44563 -1.53212,1.456 l -1.384,0 0,-2.84875 m 0,3.64388 1.53187,0 c 1.0355,0 1.3525,0.67487 1.3525,1.466 0,0.52725 0.0845,1.50812 0.27438,2.01387 l 1.02387,0 0,-0.179 c -0.21112,0 -0.27437,-0.34787 -0.30625,-0.49562 -0.0845,-0.59063 -0.13725,-1.17063 -0.16887,-1.76125 -0.1265,-1.05475 -0.37988,-1.38338 -1.40425,-1.4785 l 0,-0.0212 c 0.91887,-0.12725 1.48862,-0.793 1.52025,-1.72138 0.0529,-1.82712 -1.0025,-2.2615 -2.66138,-2.2615 l -2.03975,0 0,7.9185 0.87763,0 0,-3.47987"
         inkscape:connector-curvature="0" />
      <path
         id="path32"
         style="fill:none;stroke:#000000;stroke-width:0.76025003;stroke-linecap:butt;stroke-linejoin:miter;stroke-miterlimit:4;stroke-opacity:1;stroke-dasharray:none"
         d="m 169.74596,361.23983 c 3.785,0 6.85313,-3.068 6.85313,-6.85312 0,-3.78438 -3.06813,-6.853 -6.85313,-6.853 -3.78487,0 -6.853,3.06862 -6.853,6.853 0,3.78512 3.06813,6.85312 6.853,6.85312 z"
         inkscape:connector-curvature="0" />
    </g>
  </g>
</svg>
